<svg width="22" height="21" viewBox="0 0 22 21" fill="none" xmlns="http://www.w3.org/2000/svg">
<path d="M9.89282 1.10696C10.1935 0.188365 11.493 0.188365 11.7936 1.10696L13.5445 6.45669C13.679 6.86767 14.0625 7.14564 14.4949 7.14564H20.1454C21.1159 7.14564 21.5175 8.38896 20.7304 8.95668L16.1716 12.2449C15.8185 12.4995 15.6708 12.9533 15.8062 13.367L17.5504 18.6964C17.8516 19.6165 16.8002 20.3848 16.0151 19.8185L11.4282 16.5101C11.0789 16.2581 10.6075 16.2581 10.2582 16.5101L5.67137 19.8185C4.88624 20.3848 3.83487 19.6165 4.13599 18.6964L5.88025 13.367C6.01565 12.9533 5.86789 12.4995 5.51485 12.2449L0.956018 8.95668C0.168918 8.38896 0.570526 7.14564 1.54101 7.14564H7.19152C7.62396 7.14564 8.00741 6.86768 8.14192 6.45669L9.89282 1.10696Z" fill="#E5E5E5"/>
</svg>
