<svg aria-hidden="true" style="position: absolute; width: 0; height: 0; overflow: hidden;" version="1.1" xmlns="http://www.w3.org/2000/svg" xmlns:xlink="http://www.w3.org/1999/xlink">
<defs>
<symbol id="icon-Star" viewBox="0 0 34 32">
<path fill="#e5e5e5" style="fill: var(--color1, #e5e5e5)" d="M15.075 1.687c0.458-1.4 2.438-1.4 2.896 0l2.668 8.152c0.205 0.626 0.789 1.050 1.448 1.050h8.61c1.479 0 2.091 1.895 0.891 2.76l-6.947 5.011c-0.538 0.388-0.763 1.079-0.557 1.71l2.658 8.121c0.459 1.402-1.143 2.573-2.34 1.71l-6.99-5.041c-0.532-0.384-1.251-0.384-1.783 0l-6.989 5.041c-1.196 0.863-2.798-0.308-2.34-1.71l2.658-8.121c0.206-0.63-0.019-1.322-0.557-1.71l-6.947-5.011c-1.199-0.865-0.587-2.76 0.891-2.76h8.61c0.659 0 1.243-0.424 1.448-1.050l2.668-8.152z"></path>
</symbol>
<symbol id="icon-Star1" viewBox="0 0 34 32">
<path fill="#e5e5e5" style="fill: var(--color1, #e5e5e5)" d="M15.075 1.687c0.458-1.4 2.438-1.4 2.896 0l2.668 8.152c0.205 0.626 0.789 1.050 1.448 1.050h8.61c1.479 0 2.091 1.895 0.891 2.76l-6.947 5.011c-0.538 0.388-0.763 1.079-0.557 1.71l2.658 8.121c0.459 1.402-1.143 2.573-2.34 1.71l-6.99-5.041c-0.532-0.384-1.251-0.384-1.783 0l-6.989 5.041c-1.196 0.863-2.798-0.308-2.34-1.71l2.658-8.121c0.206-0.63-0.019-1.322-0.557-1.71l-6.947-5.011c-1.199-0.865-0.587-2.76 0.891-2.76h8.61c0.659 0 1.243-0.424 1.448-1.050l2.668-8.152z"></path>
</symbol>
<symbol id="icon-Star2" viewBox="0 0 34 32">
<path fill="#e5e5e5" style="fill: var(--color1, #e5e5e5)" d="M15.075 1.687c0.458-1.4 2.438-1.4 2.896 0l2.668 8.152c0.205 0.626 0.789 1.050 1.448 1.050h8.61c1.479 0 2.091 1.895 0.891 2.76l-6.947 5.011c-0.538 0.388-0.763 1.079-0.557 1.71l2.658 8.121c0.459 1.402-1.143 2.573-2.34 1.71l-6.99-5.041c-0.532-0.384-1.251-0.384-1.783 0l-6.989 5.041c-1.196 0.863-2.798-0.308-2.34-1.71l2.658-8.121c0.206-0.63-0.019-1.322-0.557-1.71l-6.947-5.011c-1.199-0.865-0.587-2.76 0.891-2.76h8.61c0.659 0 1.243-0.424 1.448-1.050l2.668-8.152z"></path>
</symbol>
<symbol id="icon-Star3" viewBox="0 0 34 32">
<path fill="#e5e5e5" style="fill: var(--color1, #e5e5e5)" d="M15.075 1.687c0.458-1.4 2.438-1.4 2.896 0l2.668 8.152c0.205 0.626 0.789 1.050 1.448 1.050h8.61c1.479 0 2.091 1.895 0.891 2.76l-6.947 5.011c-0.538 0.388-0.763 1.079-0.557 1.71l2.658 8.121c0.459 1.402-1.143 2.573-2.34 1.71l-6.99-5.041c-0.532-0.384-1.251-0.384-1.783 0l-6.989 5.041c-1.196 0.863-2.798-0.308-2.34-1.71l2.658-8.121c0.206-0.63-0.019-1.322-0.557-1.71l-6.947-5.011c-1.199-0.865-0.587-2.76 0.891-2.76h8.61c0.659 0 1.243-0.424 1.448-1.050l2.668-8.152z"></path>
</symbol>
<symbol id="icon-Star4" viewBox="0 0 34 32">
<path fill="#e5e5e5" style="fill: var(--color1, #e5e5e5)" d="M15.075 1.687c0.458-1.4 2.438-1.4 2.896 0l2.668 8.152c0.205 0.626 0.789 1.050 1.448 1.050h8.61c1.479 0 2.091 1.895 0.891 2.76l-6.947 5.011c-0.538 0.388-0.763 1.079-0.557 1.71l2.658 8.121c0.459 1.402-1.143 2.573-2.34 1.71l-6.99-5.041c-0.532-0.384-1.251-0.384-1.783 0l-6.989 5.041c-1.196 0.863-2.798-0.308-2.34-1.71l2.658-8.121c0.206-0.63-0.019-1.322-0.557-1.71l-6.947-5.011c-1.199-0.865-0.587-2.76 0.891-2.76h8.61c0.659 0 1.243-0.424 1.448-1.050l2.668-8.152z"></path>
</symbol>
</defs>
</svg>
